<?xml version="1.0" encoding="UTF-8" standalone="no"?>
<!DOCTYPE svg PUBLIC "-//W3C//DTD SVG 1.1//EN" "http://www.w3.org/Graphics/SVG/1.1/DTD/svg11.dtd">
<svg width="100%" height="100%" viewBox="0 0 1201 701" version="1.1" xmlns="http://www.w3.org/2000/svg" xmlns:xlink="http://www.w3.org/1999/xlink" xml:space="preserve" xmlns:serif="http://www.serif.com/" style="fill-rule:evenodd;clip-rule:evenodd;stroke-linecap:round;stroke-linejoin:round;stroke-miterlimit:1.5;">
    <g transform="matrix(1,0,0,1,-4550,-4073)">
        <g id="feet-in-snakes" transform="matrix(1.24786,0,0,0.599584,2288.86,3727.1)">
            <rect x="1812.67" y="577.019" width="961.644" height="1167.48" style="fill:rgb(183,188,191);"/>
            <clipPath id="_clip1">
                <rect x="1812.67" y="577.019" width="961.644" height="1167.48"/>
            </clipPath>
            <g clip-path="url(#_clip1)">
                <g id="bars" transform="matrix(3.84929e-17,-1.66782,1.20205,1.58622e-16,1812.68,1911.28)">
                    <g transform="matrix(1.11111,0,0,1,-22.2222,0)">
                        <rect x="110" y="0" width="90" height="800" style="fill:white;stroke:white;stroke-width:0.76px;"/>
                    </g>
                    <rect x="200" y="0" width="100" height="800" style="fill:rgb(229,79,83);stroke:rgb(229,79,83);stroke-width:0.78px;"/>
                    <g transform="matrix(1,0,0,0.987654,-2.27374e-13,0)">
                        <rect x="300" y="0" width="100" height="810" style="fill:rgb(162,217,239);stroke:rgb(162,217,239);stroke-width:0.79px;"/>
                    </g>
                    <rect x="500" y="0" width="100" height="800" style="fill:rgb(55,120,190);stroke:rgb(55,120,190);stroke-width:0.65px;"/>
                    <rect x="400" y="0" width="100" height="800" style="fill:rgb(0,200,225);stroke:rgb(0,200,225);stroke-width:0.65px;"/>
                    <rect x="600" y="0" width="100" height="800" style="fill:rgb(150,220,0);stroke:rgb(150,220,0);stroke-width:0.33px;"/>
                    <rect x="700" y="0" width="100" height="800" style="fill:rgb(0,170,65);"/>
                </g>
                <g transform="matrix(1,0,0,1.14286,-160.274,-82.4313)">
                    <g transform="matrix(-1.73881,0,0,-3.16649,4736.07,1343.02)">
                        <path d="M1496.91,195.822L1542.99,195.822L1542.99,241.909C1542.99,216.456 1522.36,195.822 1496.91,195.822Z" style="fill:rgb(213,241,153);stroke:rgb(213,241,153);stroke-width:0.19px;"/>
                    </g>
                    <g transform="matrix(1.73881,0,0,3.16649,-149.07,394.755)">
                        <path d="M1496.91,195.822L1542.99,195.822L1542.99,241.909C1542.99,216.456 1522.36,195.822 1496.91,195.822Z" style="fill:rgb(162,217,239);stroke:rgb(162,217,239);stroke-width:0.19px;"/>
                    </g>
                    <g transform="matrix(-1.73881,0,0,-3.16649,4736.07,1488.96)">
                        <path d="M1542.99,241.909L1496.91,241.909L1496.91,195.822C1522.36,195.822 1542.99,216.456 1542.99,241.909Z" style="fill:rgb(213,241,153);stroke:rgb(213,241,153);stroke-width:0.19px;"/>
                    </g>
                    <g transform="matrix(-1.73881,0,0,-3.16649,4816.2,1634.89)">
                        <path d="M1542.99,241.909L1496.91,241.909L1496.91,195.822C1522.36,195.822 1542.99,216.456 1542.99,241.909Z" style="fill:rgb(0,200,225);stroke:rgb(0,200,225);stroke-width:0.19px;"/>
                    </g>
                    <g transform="matrix(-1.73881,0,0,-3.16649,4976.48,1780.83)">
                        <path d="M1542.99,241.909L1496.91,241.909L1496.91,195.822C1522.36,195.822 1542.99,216.456 1542.99,241.909Z" style="fill:rgb(162,217,239);stroke:rgb(162,217,239);stroke-width:0.19px;"/>
                    </g>
                    <g transform="matrix(1.73881,0,0,3.16649,-229.207,394.755)">
                        <path d="M1542.99,241.909L1496.91,241.909L1496.91,195.822C1522.36,195.822 1542.99,216.456 1542.99,241.909Z" style="fill:rgb(162,217,239);stroke:rgb(162,217,239);stroke-width:0.19px;"/>
                    </g>
                    <g transform="matrix(1.73881,0,0,3.16649,-469.618,102.886)">
                        <path d="M1542.99,241.909L1496.91,241.909L1496.91,195.822C1522.36,195.822 1542.99,216.456 1542.99,241.909Z" style="fill:rgb(213,241,153);stroke:rgb(213,241,153);stroke-width:0.19px;"/>
                    </g>
                    <g transform="matrix(1.73881,0,0,3.16649,-309.344,248.82)">
                        <path d="M1542.99,241.909L1496.91,241.909L1496.91,195.822C1522.36,195.822 1542.99,216.456 1542.99,241.909Z" style="fill:rgb(0,200,225);stroke:rgb(0,200,225);stroke-width:0.19px;"/>
                    </g>
                    <g transform="matrix(1.73881,0,0,3.16649,-68.9332,248.82)">
                        <path d="M1542.99,241.909L1496.91,241.909L1496.91,195.822C1522.36,195.822 1542.99,216.456 1542.99,241.909Z" style="fill:rgb(0,200,225);stroke:rgb(0,200,225);stroke-width:0.19px;"/>
                    </g>
                    <g transform="matrix(0.890411,0,0,1.6215,183.223,1176.97)">
                        <rect x="2280" y="-190" width="90" height="90" style="fill:rgb(0,200,225);stroke:rgb(0,200,225);stroke-width:0.38px;"/>
                    </g>
                    <g transform="matrix(-1.73881,0,0,-3.16649,5056.61,1926.76)">
                        <path d="M1542.99,241.909L1496.91,241.909L1496.91,195.822C1522.36,195.822 1542.99,216.456 1542.99,241.909Z" style="fill:rgb(55,120,190);stroke:rgb(55,120,190);stroke-width:0.19px;"/>
                    </g>
                    <g transform="matrix(1.73881,0,0,-3.16649,-68.9332,1926.76)">
                        <path d="M1542.99,241.909L1496.91,241.909L1496.91,195.822C1522.36,195.822 1542.99,216.456 1542.99,241.909Z" style="fill:rgb(55,120,190);stroke:rgb(55,120,190);stroke-width:0.19px;"/>
                    </g>
                    <g transform="matrix(0.890411,0,0,1.6215,423.634,1468.84)">
                        <rect x="2280" y="-190" width="90" height="90" style="fill:rgb(55,120,190);stroke:rgb(55,120,190);stroke-width:0.38px;"/>
                    </g>
                    <g transform="matrix(0.890411,0,0,1.6215,503.771,1322.91)">
                        <rect x="2280" y="-190" width="90" height="90" style="fill:rgb(162,217,239);stroke:rgb(162,217,239);stroke-width:0.38px;"/>
                    </g>
                    <g transform="matrix(-0.80137,0,0,1.45935,6416.54,-3816.95)">
                        <g transform="matrix(2.1698,0,0,2.1698,1597.01,2786.02)">
                            <path d="M1542.99,241.909L1496.91,241.909L1496.91,195.822C1522.36,195.822 1542.99,216.456 1542.99,241.909ZM1514.88,213.105C1511.7,213.105 1509.12,215.686 1509.12,218.866C1509.12,222.045 1511.7,224.626 1514.88,224.626C1518.06,224.626 1520.64,222.045 1520.64,218.866C1520.64,215.686 1518.06,213.105 1514.88,213.105Z" style="fill:rgb(0,200,225);stroke:rgb(0,200,225);stroke-width:0.19px;"/>
                        </g>
                        <g transform="matrix(1.20728,0,0,1.20728,-999.625,-663.55)">
                            <circle cx="4873.15" cy="3250.67" r="10.245" style="fill:rgb(55,120,190);stroke:rgb(55,120,190);stroke-width:0.35px;"/>
                        </g>
                    </g>
                </g>
                <g transform="matrix(1,0,0,1.14286,-9.09495e-13,-249.214)">
                    <g transform="matrix(-0.80137,0,0,1.45935,6336.41,-3816.95)">
                        <g transform="matrix(2.1698,0,0,2.1698,1597.01,2786.02)">
                            <path d="M1542.99,241.909L1496.91,241.909L1496.91,195.822C1522.36,195.822 1542.99,216.456 1542.99,241.909ZM1514.88,213.105C1511.7,213.105 1509.12,215.686 1509.12,218.866C1509.12,222.045 1511.7,224.626 1514.88,224.626C1518.06,224.626 1520.64,222.045 1520.64,218.866C1520.64,215.686 1518.06,213.105 1514.88,213.105Z" style="fill:rgb(0,170,65);stroke:rgb(0,170,65);stroke-width:0.19px;"/>
                        </g>
                        <g transform="matrix(1.20728,0,0,1.20728,-999.625,-663.55)">
                            <circle cx="4873.15" cy="3250.67" r="10.245" style="fill:rgb(150,220,0);stroke:rgb(150,220,0);stroke-width:0.35px;"/>
                        </g>
                    </g>
                    <g transform="matrix(1.73881,0,0,3.16649,-149.07,248.82)">
                        <path d="M1542.99,241.909L1496.91,241.909L1496.91,195.822C1522.36,195.822 1542.99,216.456 1542.99,241.909Z" style="fill:rgb(0,170,65);stroke:rgb(0,170,65);stroke-width:0.19px;"/>
                    </g>
                    <g transform="matrix(-1.73881,0,0,3.16649,5297.02,248.82)">
                        <path d="M1542.99,241.909L1496.91,241.909L1496.91,195.822C1522.36,195.822 1542.99,216.456 1542.99,241.909Z" style="fill:rgb(0,170,65);stroke:rgb(0,170,65);stroke-width:0.19px;"/>
                    </g>
                    <g transform="matrix(1.73881,0,0,-3.16649,91.3408,1634.89)">
                        <path d="M1542.99,241.909L1496.91,241.909L1496.91,195.822C1522.36,195.822 1542.99,216.456 1542.99,241.909Z" style="fill:rgb(0,170,65);stroke:rgb(0,170,65);stroke-width:0.19px;"/>
                    </g>
                    <g transform="matrix(-1.73881,0,0,-3.16649,5136.75,2072.7)">
                        <path d="M1542.99,241.909L1496.91,241.909L1496.91,195.822C1522.36,195.822 1542.99,216.456 1542.99,241.909Z" style="fill:rgb(225,153,195);stroke:rgb(225,153,195);stroke-width:0.19px;"/>
                    </g>
                    <g transform="matrix(1.73881,0,0,-3.16649,-68.9332,2072.7)">
                        <path d="M1542.99,241.909L1496.91,241.909L1496.91,195.822C1522.36,195.822 1542.99,216.456 1542.99,241.909Z" style="fill:rgb(225,153,195);stroke:rgb(225,153,195);stroke-width:0.19px;"/>
                    </g>
                    <g transform="matrix(-1.73881,0,0,3.16649,5216.89,540.689)">
                        <path d="M1542.99,241.909L1496.91,241.909L1496.91,195.822C1522.36,195.822 1542.99,216.456 1542.99,241.909Z" style="fill:rgb(55,120,190);stroke:rgb(55,120,190);stroke-width:0.19px;"/>
                    </g>
                    <g transform="matrix(1.73881,0,0,-3.16649,11.2038,1926.76)">
                        <path d="M1542.99,241.909L1496.91,241.909L1496.91,195.822C1522.36,195.822 1542.99,216.456 1542.99,241.909Z" style="fill:rgb(55,120,190);stroke:rgb(55,120,190);stroke-width:0.19px;"/>
                    </g>
                    <g transform="matrix(1.73881,0,0,3.16649,-229.207,394.755)">
                        <path d="M1496.91,195.822L1542.99,195.822L1542.99,241.909C1542.99,216.456 1522.36,195.822 1496.91,195.822Z" style="fill:rgb(0,200,225);stroke:rgb(0,200,225);stroke-width:0.19px;"/>
                    </g>
                    <g transform="matrix(1.73881,0,0,-3.16649,91.3408,1488.96)">
                        <path d="M1496.91,195.822L1542.99,195.822L1542.99,241.909C1542.99,216.456 1522.36,195.822 1496.91,195.822Z" style="fill:rgb(150,220,0);stroke:rgb(150,220,0);stroke-width:0.19px;"/>
                    </g>
                    <g transform="matrix(0.890411,0,0,1.6215,423.634,1322.91)">
                        <rect x="2280" y="-190" width="90" height="90" style="fill:rgb(0,200,225);stroke:rgb(0,200,225);stroke-width:0.38px;"/>
                    </g>
                    <g transform="matrix(0.890411,0,0,1.6215,423.634,1468.84)">
                        <rect x="2280" y="-190" width="90" height="90" style="fill:rgb(55,120,190);stroke:rgb(55,120,190);stroke-width:0.38px;"/>
                    </g>
                    <g transform="matrix(0.890411,0,0,1.6215,583.908,1322.91)">
                        <rect x="2280" y="-190" width="90" height="90" style="fill:rgb(0,200,225);stroke:rgb(0,200,225);stroke-width:0.38px;"/>
                    </g>
                </g>
                <g transform="matrix(0.75,0,0,1.14286,533.306,-249.214)">
                    <g transform="matrix(1.06849,0,0,1.45935,-2829.93,-3962.89)">
                        <g transform="matrix(2.1698,0,0,2.1698,1597.01,2786.02)">
                            <path d="M1542.99,241.909L1496.91,241.909L1496.91,195.822C1522.36,195.822 1542.99,216.456 1542.99,241.909ZM1514.88,213.105C1511.7,213.105 1509.12,215.686 1509.12,218.866C1509.12,222.045 1511.7,224.626 1514.88,224.626C1518.06,224.626 1520.64,222.045 1520.64,218.866C1520.64,215.686 1518.06,213.105 1514.88,213.105Z" style="fill:rgb(150,220,0);stroke:rgb(150,220,0);stroke-width:0.19px;"/>
                        </g>
                        <g transform="matrix(1.20728,0,0,1.20728,-999.625,-663.55)">
                            <circle cx="4873.15" cy="3250.67" r="10.245" style="fill:rgb(0,170,65);stroke:rgb(0,170,65);stroke-width:0.35px;"/>
                        </g>
                    </g>
                    <g transform="matrix(-2.31842,0,0,3.16649,5817.38,102.886)">
                        <path d="M1542.99,241.909L1496.91,241.909L1496.91,195.822C1522.36,195.822 1542.99,216.456 1542.99,241.909Z" style="fill:rgb(150,220,0);stroke:rgb(150,220,0);stroke-width:0.19px;"/>
                    </g>
                    <g transform="matrix(-2.31842,0,0,3.16649,5924.23,248.82)">
                        <path d="M1496.91,195.822L1542.99,195.822L1542.99,241.909C1542.99,216.456 1522.36,195.822 1496.91,195.822Z" style="fill:rgb(0,170,65);stroke:rgb(0,170,65);stroke-width:0.19px;"/>
                    </g>
                    <g transform="matrix(2.31842,0,0,-3.16649,-1337.23,1634.89)">
                        <path d="M1496.91,195.822L1542.99,195.822L1542.99,241.909C1542.99,216.456 1522.36,195.822 1496.91,195.822Z" style="fill:rgb(0,170,65);stroke:rgb(0,170,65);stroke-width:0.19px;"/>
                    </g>
                    <g transform="matrix(2.31842,0,0,-3.16649,-1657.78,2072.7)">
                        <path d="M1496.91,195.822L1542.99,195.822L1542.99,241.909C1542.99,216.456 1522.36,195.822 1496.91,195.822Z" style="fill:rgb(225,153,195);stroke:rgb(225,153,195);stroke-width:0.19px;"/>
                    </g>
                    <g transform="matrix(1.18721,0,0,1.6215,-466.777,1176.97)">
                        <rect x="2280" y="-190" width="90" height="90" style="fill:rgb(0,170,65);stroke:rgb(0,170,65);stroke-width:0.38px;"/>
                    </g>
                    <g transform="matrix(2.31842,0,0,-3.16649,-1231.27,1780.83)">
                        <path d="M1542.99,241.909L1496.91,241.909L1496.91,195.822C1522.36,195.822 1542.99,216.456 1542.99,241.909Z" style="fill:rgb(162,217,239);stroke:rgb(162,217,239);stroke-width:0.19px;"/>
                    </g>
                    <g transform="matrix(2.31842,0,0,-3.16649,-1444.08,1926.76)">
                        <path d="M1542.99,241.909L1496.91,241.909L1496.91,195.822C1522.36,195.822 1542.99,216.456 1542.99,241.909Z" style="fill:rgb(55,120,190);stroke:rgb(55,120,190);stroke-width:0.19px;"/>
                    </g>
                    <g transform="matrix(2.31842,0,0,-3.16649,-1550.93,2072.7)">
                        <path d="M1542.99,241.909L1496.91,241.909L1496.91,195.822C1522.36,195.822 1542.99,216.456 1542.99,241.909Z" style="fill:rgb(225,153,195);stroke:rgb(225,153,195);stroke-width:0.19px;"/>
                    </g>
                    <g transform="matrix(-2.31842,0,0,3.16649,5496.83,540.689)">
                        <path d="M1542.99,241.909L1496.91,241.909L1496.91,195.822C1522.36,195.822 1542.99,216.456 1542.99,241.909Z" style="fill:rgb(55,120,190);stroke:rgb(55,120,190);stroke-width:0.19px;"/>
                    </g>
                    <g transform="matrix(-2.31842,0,0,3.16649,5603.68,394.755)">
                        <path d="M1542.99,241.909L1496.91,241.909L1496.91,195.822C1522.36,195.822 1542.99,216.456 1542.99,241.909Z" style="fill:rgb(162,217,239);stroke:rgb(162,217,239);stroke-width:0.19px;"/>
                    </g>
                    <g transform="matrix(1.18721,0,0,1.6215,-573.626,1322.91)">
                        <rect x="2280" y="-190" width="90" height="90" style="fill:rgb(162,217,239);stroke:rgb(162,217,239);stroke-width:0.38px;"/>
                    </g>
                </g>
                <g transform="matrix(1,0,0,1.14286,-9.09495e-13,-249.214)">
                    <g transform="matrix(-0.80137,0,0,1.45935,6015.86,-3379.15)">
                        <g transform="matrix(2.1698,0,0,2.1698,1597.01,2786.02)">
                            <path d="M1542.99,241.909L1496.91,241.909L1496.91,195.822C1522.36,195.822 1542.99,216.456 1542.99,241.909ZM1514.88,213.105C1511.7,213.105 1509.12,215.686 1509.12,218.866C1509.12,222.045 1511.7,224.626 1514.88,224.626C1518.06,224.626 1520.64,222.045 1520.64,218.866C1520.64,215.686 1518.06,213.105 1514.88,213.105Z" style="fill:rgb(209,65,144);stroke:rgb(209,65,144);stroke-width:0.19px;"/>
                        </g>
                        <g transform="matrix(1.20728,0,0,1.20728,-999.625,-663.55)">
                            <circle cx="4873.15" cy="3250.67" r="10.245" style="fill:rgb(162,217,239);stroke:rgb(209,65,144);stroke-width:0.35px;"/>
                        </g>
                    </g>
                    <g transform="matrix(1.73881,0,0,3.16649,-469.618,686.624)">
                        <path d="M1542.99,241.909L1496.91,241.909L1496.91,195.822C1522.36,195.822 1542.99,216.456 1542.99,241.909Z" style="fill:rgb(209,65,144);stroke:rgb(209,65,144);stroke-width:0.19px;"/>
                    </g>
                    <g transform="matrix(-1.73881,0,0,3.16649,4976.48,686.624)">
                        <path d="M1542.99,241.909L1496.91,241.909L1496.91,195.822C1522.36,195.822 1542.99,216.456 1542.99,241.909Z" style="fill:rgb(225,153,195);stroke:rgb(225,153,195);stroke-width:0.19px;"/>
                    </g>
                    <g transform="matrix(1.73881,0,0,-3.16649,-229.207,2072.7)">
                        <path d="M1542.99,241.909L1496.91,241.909L1496.91,195.822C1522.36,195.822 1542.99,216.456 1542.99,241.909Z" style="fill:rgb(225,153,195);stroke:rgb(225,153,195);stroke-width:0.19px;"/>
                    </g>
                    <g transform="matrix(1.73881,0,0,-3.16649,-309.344,2364.56)">
                        <path d="M1542.99,241.909L1496.91,241.909L1496.91,195.822C1522.36,195.822 1542.99,216.456 1542.99,241.909Z" style="fill:rgb(250,200,0);stroke:rgb(250,200,0);stroke-width:0.19px;"/>
                    </g>
                    <g transform="matrix(-1.73881,0,0,-3.16649,4816.2,2364.56)">
                        <path d="M1542.99,241.909L1496.91,241.909L1496.91,195.822C1522.36,195.822 1542.99,216.456 1542.99,241.909Z" style="fill:rgb(250,200,0);stroke:rgb(250,200,0);stroke-width:0.19px;"/>
                    </g>
                    <g transform="matrix(0.890411,0,0,1.6215,103.086,1760.71)">
                        <rect x="2280" y="-190" width="90" height="90" style="fill:rgb(196,16,17);stroke:rgb(196,16,17);stroke-width:0.38px;"/>
                    </g>
                    <g transform="matrix(0.890411,0,0,1.6215,263.36,1760.71)">
                        <rect x="2280" y="-190" width="90" height="90" style="fill:rgb(196,16,17);stroke:rgb(196,16,17);stroke-width:0.38px;"/>
                    </g>
                    <g transform="matrix(0.890411,0,0,1.6215,183.223,1906.65)">
                        <rect x="2280" y="-190" width="90" height="90" style="fill:rgb(250,200,0);stroke:rgb(250,200,0);stroke-width:0.38px;"/>
                    </g>
                    <g transform="matrix(1.73881,0,0,3.16649,-549.755,832.559)">
                        <path d="M1496.91,195.822L1542.99,195.822L1542.99,241.909C1542.99,216.456 1522.36,195.822 1496.91,195.822Z" style="fill:rgb(196,16,17);stroke:rgb(196,16,17);stroke-width:0.19px;"/>
                    </g>
                    <g transform="matrix(1.73881,0,0,-3.16649,-229.207,1926.76)">
                        <path d="M1496.91,195.822L1542.99,195.822L1542.99,241.909C1542.99,216.456 1522.36,195.822 1496.91,195.822Z" style="fill:rgb(55,120,190);stroke:rgb(55,120,190);stroke-width:0.19px;"/>
                    </g>
                    <g transform="matrix(-1.73881,0,0,-3.16649,4896.34,2218.63)">
                        <path d="M1496.91,195.822L1542.99,195.822L1542.99,241.909C1542.99,216.456 1522.36,195.822 1496.91,195.822Z" style="fill:rgb(196,16,17);stroke:rgb(196,16,17);stroke-width:0.19px;"/>
                    </g>
                </g>
            </g>
        </g>
    </g>
</svg>
